<?xml version="1.0" encoding="UTF-8"?> <svg xmlns="http://www.w3.org/2000/svg" width="104" height="29" viewBox="0 0 104 29" fill="none"><path fill-rule="evenodd" clip-rule="evenodd" d="M0 11.9095C0 4.84681 5.29007 0 11.6822 0C18.0601 0 23.3077 4.82462 23.3329 11.6418V11.6893C23.3329 12.2026 23.3046 12.7 23.2463 13.183C22.8653 16.4918 21.2153 19.0894 18.9229 20.7082C18.3483 20.0731 17.9295 19.2717 17.7264 18.3403C19.0474 17.0224 19.9306 15.212 20.1573 13.0373C20.1841 12.7807 20.2014 12.5193 20.2093 12.2533C20.214 12.1392 20.2155 12.0252 20.2155 11.9095C20.2155 6.58908 16.3739 2.94613 11.6822 2.94613C6.99045 2.94613 3.14882 6.58921 3.14882 11.9095C3.14882 14.808 4.2699 17.1697 6.0584 18.7187V18.7203C7.55401 20.0176 9.51737 20.7477 11.6822 20.7477C11.7462 20.7477 11.8108 20.7478 11.8759 20.7479C13.8908 20.7505 16.3251 20.7537 16.3251 18.2752C16.3251 18.6649 16.3582 19.0371 16.4227 19.3935C16.8873 21.9642 18.9498 23.5988 21.4657 23.5988C18.6395 23.5988 16.3251 25.7942 16.3251 29C16.3251 25.7942 14.0107 23.5988 11.1846 23.5988C10.8883 23.5908 10.7143 23.5725 10.4619 23.5459C10.4166 23.5411 10.3687 23.536 10.3171 23.5307C4.40835 22.9399 0 18.5065 0 11.9095ZM76.2065 12.8932V23.0873H73.0418V13.8728C73.0418 10.2298 71.6421 8.57674 68.8426 8.57674C66.0735 8.57674 64.3998 10.5972 64.3998 13.9034V23.0873H61.2352V0.433669H64.3998V7.93387H64.4607C65.4649 6.43383 67.0776 5.6685 69.1773 5.6685C73.194 5.6685 76.2065 8.24 76.2065 12.8932ZM34.5427 20.6077C31.378 20.6077 28.7915 17.8219 28.7915 14.6381C28.7915 11.3013 31.378 8.57674 34.5427 8.57674C38.0421 8.57674 40.4156 11.3319 40.4156 14.6381C40.4156 17.8525 37.8291 20.6077 34.5427 20.6077ZM43.5194 23.0873V6.1277H40.3547V8.51551H40.2939C38.9854 6.58689 36.9162 5.6685 34.4514 5.6685C29.4914 5.6685 25.6268 9.46452 25.6268 14.883C25.6268 19.7811 29.6435 23.5159 34.5731 23.5159C36.9771 23.5159 39.1071 22.4751 40.2939 20.4546H40.3547V23.0873H43.5194ZM57.7866 10.6278C57.6953 7.62774 55.4131 5.6685 52.6136 5.6685C49.8445 5.6685 47.3188 7.65835 47.3188 10.6584C47.3188 12.587 48.0187 14.3932 52.1572 15.7096C54.1351 16.3525 55.0175 17.1178 55.0175 18.2811C55.0175 19.6587 54.0438 20.6077 52.5832 20.6077C50.9095 20.6077 49.8749 19.5668 49.7228 17.5158H46.5581C46.5581 21.4342 49.4793 23.5159 52.5223 23.5159C55.8087 23.5159 58.1822 21.373 58.1822 18.0974C58.1822 14.9443 55.9913 13.5054 53.6178 12.7707L53.5315 12.7439C51.8943 12.2352 50.4835 11.7969 50.4835 10.3829C50.4835 9.40329 51.2443 8.57674 52.4614 8.57674C53.7699 8.57674 54.4698 9.40329 54.6219 10.6278H57.7866ZM81.3969 4.16846C82.2708 4.16846 82.9792 3.46002 82.9792 2.58612V2.55005C82.9792 1.67615 82.2708 0.967711 81.3969 0.967711C80.523 0.967711 79.8146 1.67615 79.8146 2.55005V2.58612C79.8146 3.46002 80.523 4.16846 81.3969 4.16846ZM82.9792 23.0873V6.1277H79.8146V23.0873H82.9792ZM95.0227 5.6685C99.6784 5.6685 104.06 9.34207 103.999 14.73C103.939 19.2607 100.165 23.5159 94.7793 23.5159C90.0323 23.5159 85.8025 19.4444 85.8025 14.6687C85.8025 9.49513 89.8497 5.6685 95.0227 5.6685ZM94.8097 20.6077C98.1265 20.6077 100.835 17.9749 100.835 14.5463C100.835 11.2401 98.1874 8.57674 94.8706 8.57674C91.7059 8.57674 88.9672 11.2707 88.9672 14.5769C88.9672 17.7913 91.6146 20.6077 94.8097 20.6077Z" fill="#1A1A19"></path></svg> 